<?xml version="1.0" encoding="utf-8"?>
<!-- Generator: Adobe Illustrator 21.0.2, SVG Export Plug-In . SVG Version: 6.00 Build 0)  -->
<svg version="1.1" id="Layer_1" xmlns="http://www.w3.org/2000/svg" xmlns:xlink="http://www.w3.org/1999/xlink" x="0px" y="0px"
	 viewBox="0 0 363 346.8" style="enable-background:new 0 0 363 346.8;" xml:space="preserve">
<style type="text/css">
	.st0{fill:#0388A6;}
	.st1{fill:#5ED9EA;}
	.st2{fill:#FFFFFF;}
	.st3{font-family:'NexaLight';}
	.st4{font-size:51.1894px;}
	.st5{enable-background:new    ;}
	.st6{fill:#D355A0;}
</style>
<g>
	<g>
		<path class="st0" d="M307.2,124.7c0,18-14.6,32.6-32.6,32.6c-18,0-32.6-14.6-32.6-32.6c0-18,14.6-32.6,32.6-32.6
			C292.6,92.2,307.2,106.8,307.2,124.7z"/>
	</g>
	<g>
		<circle class="st0" cx="62.8" cy="124.7" r="32.6"/>
	</g>
	<g>
		<path class="st1" d="M101.8,10.2c120.4,0,119.6,0,146.8,0c32.5,0,33.6,28.7,33.6,28.7l2.2,179l-27.3-23.7H99.2
			c0,0-47.1,1.2-47.1-33.6c0-9.8,0-98.9,0-123.9C56,6,101.8,10.2,101.8,10.2z"/>
		<path class="st0" d="M293.5,236.4l-39.7-35.2H99.4c-0.3,0-0.9,0.5-1.8,0.5c-24.3,0-52.7-10.6-52.7-41.3l0.1-124.8
			C47.5,13.2,67.6,0,98.6,0c1.7,0,2.9,0.2,3.4,0.2h146.5c40.5,0,42.4,37.2,42.4,37.6L293.5,236.4z M99.2,184.2h161.2l14.9,13.1
			l-2-158.9c-0.2-3.2-2.3-20.5-24.7-20.5l-147.4,0c-0.1,0-1.3-0.1-2.8-0.1c-7.9,0-34.3,1.4-36.3,19.5v123.3c0,22,27,23.8,35.3,23.8
			c0.7,0,1.3-0.1,1.4-0.1L99.2,184.2z"/>
	</g>
	<g>
		<path class="st2" d="M161.6,116.5c0,11-8.9,20-20,20c-11,0-20-8.9-20-20c0-11,8.9-20,20-20C152.7,96.5,161.6,105.4,161.6,116.5z"
			/>
	</g>
	<g>
		<path class="st2" d="M218.2,116.5c0,11-8.9,20-20,20c-11,0-20-8.9-20-20c0-11,8.9-20,20-20C209.3,96.5,218.2,105.4,218.2,116.5z"
			/>
	</g>
	<g>
		<rect x="130" y="17.2" class="st1" width="74" height="22"/>
	</g>
</g>
<text transform="matrix(1.0262 0 0 1 149.7432 346.8125)" class="st2 st3 st4">mambot</text>
<g class="st5">
	<path class="st6" d="M15.2,298.7v-7.5H7.9v-7.5H0.6v-22.4h14.5v22.4h14.5v-22.4h14.5v22.4h14.5v-22.4h14.5v22.4h-7.3v7.5h-7.3v7.5
		H44.2v-7.5H29.7v7.5H15.2z"/>
	<path class="st6" d="M80.6,298.7V239h14.5v22.4H117v7.5h7.3v29.8h-14.5v-29.8H95.1v29.8H80.6z"/>
	<path class="st6" d="M138.8,298.7v-7.5h-7.3v-22.4h7.3v-7.5h21.8v7.5h-14.5v22.4h14.5v7.5H138.8z M160.6,291.2v-22.4h7.3v22.4
		H160.6z"/>
	<path class="st6" d="M204.2,298.7v-29.8H197v-7.5h21.8v37.3H204.2z M204.2,253.9V239h14.5v14.9H204.2z"/>
	<path class="st6" d="M284.2,298.7v-7.5H277v-7.5h-21.8v-7.5H277v-7.5h-29.1v-7.5h36.4v7.5h7.3v29.8H284.2z M247.9,291.2v-7.5h7.3
		v7.5H247.9z M255.1,298.7v-7.5H277v7.5H255.1z"/>
	<path class="st6" d="M298.8,298.7v-29.8h7.3v-7.5h21.8v7.5h7.3v29.8h-14.5v-29.8h-7.3v29.8H298.8z M342.4,298.7v-29.8h-7.3v-7.5
		h14.5v7.5h7.3v29.8H342.4z"/>
</g>
</svg>
