<?xml version="1.0" encoding="utf-8"?>
<!-- Generator: Adobe Illustrator 16.0.0, SVG Export Plug-In . SVG Version: 6.00 Build 0)  -->
<!DOCTYPE svg PUBLIC "-//W3C//DTD SVG 1.1//EN" "http://www.w3.org/Graphics/SVG/1.1/DTD/svg11.dtd">
<svg version="1.1" xmlns="http://www.w3.org/2000/svg" xmlns:xlink="http://www.w3.org/1999/xlink" x="0px" y="0px"
	 width="229.831px" height="169.163px" viewBox="0 0 229.831 169.163" enable-background="new 0 0 229.831 169.163"
	 xml:space="preserve">
<g id="_x31_">
</g>
<g id="_x32_">
	<path fill="#FFFFFF" d="M222.223,9.501c-4.2,0-7.606,3.405-7.606,7.606c0,1.036,0.209,2.021,0.583,2.92l-40.908,60.867
		c-3.734-1.88-7.939-2.964-12.405-2.964h-46.942h-0.057H67.944c-4.466,0-8.67,1.083-12.403,2.964l-40.91-60.867
		c0.375-0.899,0.583-1.885,0.583-2.92c0-4.201-3.405-7.606-7.606-7.606C3.405,9.501,0,12.906,0,17.107
		c0,4.202,3.405,7.608,7.607,7.608c0.59,0,1.161-0.074,1.711-0.201l40.484,60.234c-5.812,5.068-9.504,12.51-9.504,20.828v35.941
		c0,15.269,12.377,27.646,27.646,27.646h46.942h0.057h46.942c15.269,0,27.646-12.377,27.646-27.646v-35.941
		c0-8.318-3.691-15.76-9.505-20.828l40.484-60.234c0.551,0.127,1.121,0.201,1.711,0.201c4.202,0,7.608-3.406,7.608-7.608
		C229.831,12.906,226.425,9.501,222.223,9.501z"/>
	<circle fill="#333333" cx="87.262" cy="126.312" r="12.68"/>
	<circle fill="#333333" cx="142.569" cy="126.312" r="12.68"/>
</g>
</svg>
