<?xml version="1.0" encoding="utf-8"?>
<!-- Generator: Adobe Illustrator 16.0.0, SVG Export Plug-In . SVG Version: 6.00 Build 0)  -->
<!DOCTYPE svg PUBLIC "-//W3C//DTD SVG 1.1//EN" "http://www.w3.org/Graphics/SVG/1.1/DTD/svg11.dtd">
<svg version="1.1" id="Layer_1" xmlns="http://www.w3.org/2000/svg" xmlns:xlink="http://www.w3.org/1999/xlink" x="0px" y="0px"
	 width="362.982px" height="236.395px" viewBox="0 0 362.982 236.395" enable-background="new 0 0 362.982 236.395"
	 xml:space="preserve">
<g>
	<g>
		<path fill="#0388A6" d="M307.228,124.747c0,17.987-14.586,32.571-32.57,32.571c-17.991,0-32.569-14.584-32.569-32.571
			c0-17.989,14.578-32.572,32.569-32.572C292.642,92.175,307.228,106.758,307.228,124.747z"/>
	</g>
	<g>
		<circle fill="#0388A6" cx="62.834" cy="124.747" r="32.572"/>
	</g>
	<g>
		<path fill="#5ED9EA" d="M101.776,10.185c120.377,0,119.639,0,146.796,0c32.461,0,33.567,28.69,33.567,28.69l2.211,179.02
			l-27.297-23.71H99.195c0,0-47.148,1.249-47.148-33.578c0-9.835,0-98.938,0-123.9C56.046,5.96,101.776,10.185,101.776,10.185z"/>
		<path fill="#0388A6" d="M293.456,236.395l-39.73-35.21H99.379c-0.326,0-0.949,0.461-1.824,0.461
			c-24.319,0-52.714-10.646-52.714-41.255L44.9,35.584C47.474,13.237,67.557,0,98.624,0c1.675,0,2.862,0.185,3.408,0.185h146.541
			c40.523,0,42.406,37.19,42.42,37.569L293.456,236.395z M99.195,184.185h161.188l14.865,13.086l-1.965-158.946
			c-0.185-3.187-2.277-20.548-24.71-20.548l-147.388-0.009c-0.111-0.006-1.304-0.054-2.816-0.054
			c-7.869,0-34.322,1.421-36.322,19.549v123.345c0,22.042,27.042,23.755,35.253,23.755c0.706,0,1.266-0.09,1.353-0.093
			L99.195,184.185z"/>
	</g>
	<g>
		<path fill="#FFFFFF" d="M161.615,116.459c0,11.033-8.948,19.979-19.983,19.979c-11.031,0-19.976-8.946-19.976-19.979
			c0-11.035,8.945-19.979,19.976-19.979C152.667,96.48,161.615,105.425,161.615,116.459z"/>
	</g>
	<g>
		<path fill="#FFFFFF" d="M218.205,116.459c0,11.033-8.945,19.979-19.979,19.979c-11.029,0-19.973-8.946-19.973-19.979
			c0-11.035,8.941-19.979,19.973-19.979C209.259,96.48,218.205,105.425,218.205,116.459z"/>
	</g>
	<g>
		<rect x="130.046" y="17.185" fill="#5ED9EA" width="74" height="22"/>
	</g>
</g>
</svg>
